<svg width="108" height="22" viewBox="0 0 108 22" xmlns="http://www.w3.org/2000/svg"><title>Artboard</title><g fill-rule="nonzero" fill="#4565AD"><path d="M18.49 16.348a7.5 7.5 0 0 1-3.545.835c-3.49 0-6.084-2.375-6.084-5.63 0-3.405 2.829-5.674 6.229-5.674a7.332 7.332 0 0 1 3.224.759V9.74a5.859 5.859 0 0 0-3.042-1.01 2.839 2.839 0 0 0-2.566 1.39c-.532.902-.523 2.022.023 2.914a2.839 2.839 0 0 0 2.589 1.348 5.539 5.539 0 0 0 3.179-1.077l-.008 3.042zM26.97 16.28a5.334 5.334 0 0 1-3.043.903 4.435 4.435 0 0 1-2.517-.706 2.949 2.949 0 0 1-1.278-2.526 3.077 3.077 0 0 1 1.323-2.617 5.388 5.388 0 0 1 3.043-.759 8.768 8.768 0 0 1 1.878.197v-.417a1.515 1.515 0 0 0-.418-1.145 2.507 2.507 0 0 0-1.68-.463 6.813 6.813 0 0 0-3.165.85V6.714a8.674 8.674 0 0 1 3.803-.835 5.76 5.76 0 0 1 3.62 1.032A3.569 3.569 0 0 1 29.753 9.9v3.672c0 .508.198.857.662.857.192 0 .382-.045.555-.129v2.503a3.666 3.666 0 0 1-1.612.327 3.192 3.192 0 0 1-2.343-.858l-.045.008zm-.578-3.58a4.445 4.445 0 0 0-1.195-.152c-.859 0-1.726.265-1.726 1.1 0 .705.616 1.077 1.392 1.077a3.048 3.048 0 0 0 1.52-.44l.009-1.586zM32.712 2.101h3.354V16.94h-3.354zM38.857 2.101h3.354V16.94h-3.354zM44.683 13.39a9.32 9.32 0 0 0 4.282 1.251c.928 0 1.483-.242 1.483-.834 0-.835-1.217-.759-2.852-1.168-2.053-.509-3.27-1.366-3.27-3.141 0-2.276 2.053-3.58 4.746-3.58 1.429-.01 2.844.283 4.152.856v2.823A9.182 9.182 0 0 0 49.17 8.45c-.882 0-1.414.266-1.414.759 0 .758 1.171.758 2.783 1.122 2.077.509 3.34 1.298 3.34 3.164 0 2.374-2.1 3.672-4.884 3.672-1.475.007-2.935-.3-4.281-.903l-.03-2.875zM62.952 16.591a5.022 5.022 0 0 1-2.45.592 3.808 3.808 0 0 1-2.828-1.077c-.579-.615-.951-1.518-.951-3.232V8.89h-1.765V6.122h1.765V1.92h3.354v4.21h2.875V8.9h-2.875v3.626c0 1.054.243 1.843 1.262 1.843a3.902 3.902 0 0 0 1.613-.44v2.663zM71.082 16.28a5.334 5.334 0 0 1-3.042.903 4.435 4.435 0 0 1-2.517-.706 2.949 2.949 0 0 1-1.278-2.526 3.077 3.077 0 0 1 1.323-2.617 5.388 5.388 0 0 1 3.042-.759 8.768 8.768 0 0 1 1.879.197v-.417a1.515 1.515 0 0 0-.418-1.145 2.507 2.507 0 0 0-1.681-.463 6.813 6.813 0 0 0-3.164.85V6.714a8.674 8.674 0 0 1 3.803-.835 5.76 5.76 0 0 1 3.62 1.032A3.569 3.569 0 0 1 73.866 9.9v3.672c0 .508.198.857.662.857.192 0 .382-.045.555-.129v2.503a3.666 3.666 0 0 1-1.613.327 3.192 3.192 0 0 1-2.342-.858l-.046.008zm-.578-3.58a4.445 4.445 0 0 0-1.194-.152c-.86 0-1.726.265-1.726 1.1 0 .705.616 1.077 1.391 1.077a3.048 3.048 0 0 0 1.522-.44l.007-1.586zM85.769 16.348a7.5 7.5 0 0 1-3.56.835c-3.49 0-6.084-2.375-6.084-5.63 0-3.405 2.83-5.674 6.229-5.674a7.332 7.332 0 0 1 3.225.759V9.74a5.859 5.859 0 0 0-3.043-1.01 2.839 2.839 0 0 0-2.566 1.39c-.532.902-.523 2.022.024 2.914a2.839 2.839 0 0 0 2.588 1.348 5.539 5.539 0 0 0 3.18-1.077l.007 3.042zM88.134 1.92h3.354v8.777h.046l3.803-4.598h3.802l-4.152 4.84 4.464 5.978H95.49l-3.955-5.523h-.046v5.5h-3.354zM2.1 13.519c0-1.123-.313-1.563-1.461-1.563H0V9.543h.639c1.148 0 1.46-.44 1.46-1.562v-4.4C2.1 1.47 3.316 0 5.902 0a8.83 8.83 0 0 1 1.521.129v2.352a3.759 3.759 0 0 0-.837-.091c-.973 0-1.391.417-1.391 1.585v3.87c0 1.623-.373 2.503-1.521 2.882v.045c1.148.372 1.52 1.252 1.52 2.883v3.87c0 1.167.419 1.585 1.392 1.585.282 0 .563-.03.837-.091v2.351a8.83 8.83 0 0 1-1.521.13c-2.609 0-3.803-1.472-3.803-3.581v-4.4zM102.6 13.655c0-1.623.373-2.503 1.521-2.883v-.045c-1.148-.372-1.521-1.252-1.521-2.883V3.975c0-1.168-.418-1.585-1.392-1.585a3.759 3.759 0 0 0-.836.09V.13a8.83 8.83 0 0 1 1.52-.129c2.61 0 3.803 1.472 3.803 3.58v4.4c0 1.123.312 1.563 1.46 1.563h.64v2.42h-.64c-1.148 0-1.46.44-1.46 1.563v4.415c0 2.11-1.216 3.581-3.802 3.581a8.83 8.83 0 0 1-1.521-.129v-2.352c.274.062.555.092.836.091.974 0 1.392-.417 1.392-1.585v-3.892z"/></g></svg>